<svg width="77" height="77" viewBox="0 0 77 77" fill="none" xmlns="http://www.w3.org/2000/svg">
<path d="M19.25 6.41666C17.5482 6.41666 15.9161 7.0927 14.7127 8.29606C13.5094 9.49942 12.8333 11.1315 12.8333 12.8333V60.9583C12.8333 64.5196 15.6887 67.375 19.25 67.375V70.5833H25.6667V67.375H51.3333V70.5833H57.75V67.375C61.3112 67.375 64.1667 64.5196 64.1667 60.9583V12.8333C64.1667 11.1315 63.4906 9.49942 62.2873 8.29606C61.0839 7.0927 59.4518 6.41666 57.75 6.41666H19.25ZM19.25 12.8333H35.2917V60.9583H19.25V12.8333ZM41.7083 12.8333H57.75V60.9583H41.7083V12.8333ZM25.6667 32.0833V41.7083H32.0833V32.0833H25.6667ZM44.9167 32.0833V41.7083H51.3333V32.0833H44.9167Z" fill="#F5AF00"/>
</svg>
